# xmcd
#
# Track frame offsets: 
#        150
#        11253
#        23670
#        38893
#        53538
#        70205
#        85293
#        102610
#        117240
#        131320
#
# Disc length: 1915 seconds
#
# Revision: 1
# Processed by: cddbd v1.5.2PL0 Copyright (c) Steve Scherf et al.
# Submitted via: ExactAudioCopy v1.0b3
#
DISCID=7607790a
DTITLE=Sawyer Brown - Shakin'
DYEAR=1985
DGENRE=Country
TTITLE0=Where your Heart Goes (Woo Woo Woo)
TTITLE1=The Secretary's Song
TTITLE2=Heart Don't Fall Now
TTITLE3=Shakin'
TTITLE4=Sharin' the moonshine
TTITLE5=Betty's bein' bad
TTITLE6=I Believe
TTITLE7=Lonely Girls
TTITLE8=That's a no no
TTITLE9=Billy does yhour bulldog bite
EXTD=
EXTT0=
EXTT1=
EXTT2=
EXTT3=
EXTT4=
EXTT5=
EXTT6=
EXTT7=
EXTT8=
EXTT9=
PLAYORDER=
